<svg width="800" height="600" xmlns="http://www.w3.org/2000/svg">
  <!-- Background -->
  <rect width="800" height="600" fill="#f0f9ff" />
  
  <!-- Header -->
  <rect width="800" height="80" fill="#2563eb" />
  <circle cx="50" cy="40" r="20" fill="#ffffff" />
  <rect x="80" y="35" width="150" height="10" rx="2" fill="#ffffff" />
  <rect x="500" y="40" width="250" height="2" rx="1" fill="#ffffff" />
  
  <!-- Hero Section -->
  <rect y="80" width="800" height="150" fill="#3b82f6" />
  <rect x="200" y="120" width="400" height="20" rx="2" fill="#ffffff" />
  <rect x="250" y="150" width="300" height="10" rx="2" fill="#ffffff" opacity="0.8" />
  <rect x="350" y="180" width="100" height="30" rx="4" fill="#ffffff" />
  
  <!-- About Section -->
  <rect x="150" y="270" width="500" height="15" rx="2" fill="#2563eb" />
  <rect x="200" y="300" width="400" height="5" rx="1" fill="#64748b" />
  <rect x="200" y="315" width="400" height="5" rx="1" fill="#64748b" />
  <rect x="200" y="330" width="400" height="5" rx="1" fill="#64748b" />
  <rect x="200" y="345" width="300" height="5" rx="1" fill="#64748b" />
  
  <!-- Services Section -->
  <rect y="380" width="800" height="160" fill="#f1f5f9" />
  <rect x="250" y="400" width="300" height="15" rx="2" fill="#2563eb" />
  
  <!-- Service Cards -->
  <rect x="50" y="440" width="220" height="120" rx="4" fill="#ffffff" stroke="#e2e8f0" />
  <circle cx="80" cy="470" r="15" fill="#3b82f6" />
  <rect x="70" y="466" width="20" height="2" rx="1" fill="#ffffff" />
  <rect x="70" y="470" width="20" height="2" rx="1" fill="#ffffff" />
  <rect x="70" y="474" width="20" height="2" rx="1" fill="#ffffff" />
  
  <rect x="290" y="440" width="220" height="120" rx="4" fill="#ffffff" stroke="#e2e8f0" />
  <circle cx="320" cy="470" r="15" fill="#3b82f6" />
  <rect x="310" y="466" width="20" height="2" rx="1" fill="#ffffff" />
  <rect x="310" y="470" width="20" height="2" rx="1" fill="#ffffff" />
  <rect x="310" y="474" width="20" height="2" rx="1" fill="#ffffff" />
  
  <rect x="530" y="440" width="220" height="120" rx="4" fill="#ffffff" stroke="#e2e8f0" />
  <circle cx="560" cy="470" r="15" fill="#3b82f6" />
  <rect x="550" y="466" width="20" height="2" rx="1" fill="#ffffff" />
  <rect x="550" y="470" width="20" height="2" rx="1" fill="#ffffff" />
  <rect x="550" y="474" width="20" height="2" rx="1" fill="#ffffff" />
</svg> 