<svg width="400" height="300" viewBox="0 0 400 300" xmlns="http://www.w3.org/2000/svg">
  <!-- Background -->
  <rect width="400" height="300" fill="#1e40af" />
  
  <!-- Header -->
  <rect x="40" y="30" width="320" height="40" fill="#ffffff" opacity="0.9" />
  <circle cx="60" cy="50" r="10" fill="#1e40af" />
  <rect x="200" y="45" width="30" height="10" fill="#1e40af" />
  <rect x="240" y="45" width="30" height="10" fill="#1e40af" />
  <rect x="280" y="45" width="30" height="10" fill="#1e40af" />
  <rect x="320" y="45" width="30" height="10" fill="#1e40af" />
  
  <!-- Hero Section -->
  <rect x="40" y="80" width="320" height="80" fill="#ffffff" opacity="0.7" />
  <rect x="60" y="100" width="150" height="10" fill="#1e40af" />
  <rect x="60" y="120" width="120" height="10" fill="#1e40af" />
  <rect x="60" y="140" width="80" height="10" fill="#1e40af" />
  
  <!-- Features Section -->
  <rect x="40" y="170" width="100" height="60" fill="#ffffff" opacity="0.8" />
  <rect x="150" y="170" width="100" height="60" fill="#ffffff" opacity="0.8" />
  <rect x="260" y="170" width="100" height="60" fill="#ffffff" opacity="0.8" />
  
  <!-- Footer -->
  <rect x="40" y="240" width="320" height="30" fill="#ffffff" opacity="0.5" />
  <rect x="60" y="250" width="80" height="10" fill="#1e40af" />
  <rect x="280" y="250" width="60" height="10" fill="#1e40af" />
</svg> 